<?xml version="1.0" encoding="UTF-8"?>
<svg width="464px" height="464px" viewBox="0 0 464 464" version="1.1" xmlns="http://www.w3.org/2000/svg" xmlns:xlink="http://www.w3.org/1999/xlink">
    <title>Artboard</title>
    <defs>
        <linearGradient x1="50%" y1="0%" x2="50%" y2="100%" id="linearGradient-1">
            <stop stop-color="#4F4BC3" offset="0%"></stop>
            <stop stop-color="#8683E3" offset="100%"></stop>
        </linearGradient>
        <linearGradient x1="50%" y1="0%" x2="50%" y2="100%" id="linearGradient-2">
            <stop stop-color="#DDDDEF" offset="0%"></stop>
            <stop stop-color="#80808B" offset="100%"></stop>
        </linearGradient>
        <linearGradient x1="50%" y1="0%" x2="50%" y2="38.501875%" id="linearGradient-3">
            <stop stop-color="#222222" offset="0%"></stop>
            <stop stop-color="#FFFFFF" stop-opacity="0" offset="100%"></stop>
        </linearGradient>
        <linearGradient x1="50%" y1="44.948928%" x2="50%" y2="75.9277644%" id="linearGradient-4">
            <stop stop-color="#FFFFFF" stop-opacity="0" offset="0%"></stop>
            <stop stop-color="#FFFFFF" offset="100%"></stop>
        </linearGradient>
        <linearGradient x1="100%" y1="50%" x2="-2.22044605e-14%" y2="50%" id="linearGradient-5">
            <stop stop-color="#FFFFFF" offset="0%"></stop>
            <stop stop-color="#BABAC9" offset="100%"></stop>
        </linearGradient>
        <linearGradient x1="14.9811945%" y1="50%" x2="100%" y2="50%" id="linearGradient-6">
            <stop stop-color="#020202" offset="0%"></stop>
            <stop stop-color="#DDDDEF" offset="100%"></stop>
        </linearGradient>
        <linearGradient x1="33.8365228%" y1="50%" x2="100%" y2="50%" id="linearGradient-7">
            <stop stop-color="#1C1C1E" offset="0%"></stop>
            <stop stop-color="#BDBDCD" offset="100%"></stop>
        </linearGradient>
        <linearGradient x1="-1.11022302e-14%" y1="50%" x2="100%" y2="50%" id="linearGradient-8">
            <stop stop-color="#939CF8" offset="0%"></stop>
            <stop stop-color="#76F9FD" offset="100%"></stop>
        </linearGradient>
        <linearGradient x1="11.1982488%" y1="50%" x2="100%" y2="50%" id="linearGradient-9">
            <stop stop-color="#020202" offset="0%"></stop>
            <stop stop-color="#DDDDEF" offset="100%"></stop>
        </linearGradient>
        <linearGradient x1="-1.11022302e-14%" y1="50%" x2="100%" y2="50%" id="linearGradient-10">
            <stop stop-color="#76F9FD" offset="0%"></stop>
            <stop stop-color="#939CF8" offset="100%"></stop>
        </linearGradient>
        <linearGradient x1="50%" y1="50%" x2="50%" y2="100%" id="linearGradient-11">
            <stop stop-color="#FDFDFE" offset="0%"></stop>
            <stop stop-color="#B4B4C3" offset="100%"></stop>
        </linearGradient>
        <linearGradient x1="50%" y1="0%" x2="50%" y2="100%" id="linearGradient-12">
            <stop stop-color="#F5C2FB" offset="0%"></stop>
            <stop stop-color="#E175F8" offset="100%"></stop>
        </linearGradient>
    </defs>
    <g id="Artboard" stroke="none" stroke-width="1" fill="none" fill-rule="evenodd">
        <rect id="Rectangle" fill="url(#linearGradient-1)" x="0.11355879" y="0" width="464" height="464" rx="110"></rect>
        <g id="coon-copy" transform="translate(32.440893, 87.750000)">
            <path d="M199.544313,41.800432 C210.377062,41.800432 221.35396,43.1362638 232.515673,45.8046064 C282.098934,57.6580855 335.329285,95.8069306 395.771713,159.960013 L398.018932,162.353614 L398.053107,162.38802 L398.090395,162.601939 L399.118215,162.602041 C361.140889,237.208701 286.022222,288 199.559107,288 C113.095993,288 37.9773257,237.208701 0,162.602041 L0.852430238,162.601939 L0.934275622,162.519825 C75.2555732,83.0274187 138.672994,42.6128998 197.755261,41.8125586 L199.544313,41.800432 Z" id="Path" fill="url(#linearGradient-2)"></path>
            <path d="M199.544313,41.800432 C210.377062,41.800432 221.35396,43.1362638 232.515673,45.8046064 L214.733908,159.804544 L214.618216,160.639984 C213.443224,169.084204 213.905271,178.495359 216.294439,188.077787 C219.810865,202.181403 226.867008,213.917029 235.401117,221.635192 L235.652288,221.86052 L236.26752,222.390335 C236.413053,222.515656 236.557434,222.641728 236.70065,222.768542 L236.96079,223.001075 L237.949336,223.863456 L237.162095,223.183613 L237.337224,223.344185 C243.972796,229.472645 247.940387,237.245136 247.940387,245.701944 C247.940387,265.258364 226.722964,281.155268 200.359813,281.524327 L199.422028,281.530886 C172.688995,281.476061 151.040749,265.455914 151.040749,245.701944 C151.040749,237.245136 155.00834,229.472645 161.643912,223.344185 L161.819041,223.183613 L164.92164,220.492073 L163.328583,221.86052 L163.580019,221.635192 C172.026147,213.996598 179.024626,202.422948 182.576815,188.513225 L182.686697,188.077787 C185.048084,178.606782 185.526906,169.303091 184.403244,160.93494 L184.248455,159.81375 L166.465463,45.8046064 C177.452774,43.1779567 188.261,41.842502 198.928932,41.800432 L199.436823,41.800432 L199.544313,41.800432 Z" id="Path" fill="url(#linearGradient-3)"></path>
            <path d="M199.544313,41.800432 C210.377062,41.800432 221.35396,43.1362638 232.515673,45.8046064 L214.733908,159.804544 L214.618216,160.639984 C213.443224,169.084204 213.905271,178.495359 216.294439,188.077787 C219.810865,202.181403 226.867008,213.917029 235.401117,221.635192 L235.652288,221.86052 L236.26752,222.390335 C236.413053,222.515656 236.557434,222.641728 236.70065,222.768542 L236.96079,223.001075 L237.949336,223.863456 L237.162095,223.183613 L237.337224,223.344185 C243.972796,229.472645 247.940387,237.245136 247.940387,245.701944 C247.940387,265.258364 226.722964,281.155268 200.359813,281.524327 L199.422028,281.530886 C172.688995,281.476061 151.040749,265.455914 151.040749,245.701944 C151.040749,237.245136 155.00834,229.472645 161.643912,223.344185 L161.819041,223.183613 L164.92164,220.492073 L163.328583,221.86052 L163.580019,221.635192 C172.026147,213.996598 179.024626,202.422948 182.576815,188.513225 L182.686697,188.077787 C185.048084,178.606782 185.526906,169.303091 184.403244,160.93494 L184.248455,159.81375 L166.465463,45.8046064 C177.452774,43.1779567 188.261,41.842502 198.928932,41.800432 L199.436823,41.800432 L199.544313,41.800432 Z" id="Path" fill="url(#linearGradient-4)"></path>
            <path d="M215.573914,159.366464 C215.674374,158.994069 215.780955,158.620943 215.893696,158.247108 C227.915879,120.871638 256.610545,90.5728337 279.313411,90.5728337 C302.016278,90.5728337 353.663165,120.871638 392.925181,158.247108 C394.618967,159.94328 396.173982,161.624877 397.592545,163.289729 C389.563692,170.755626 380.710309,178.080776 371.05607,185.094992 C334.660496,211.537923 296.92998,226.440541 271.453249,226.484655 C270.515878,226.532619 269.572251,226.555449 268.622954,226.555449 C238.529041,226.555449 214.133105,202.159513 214.133105,172.0656 C214.133105,167.703392 214.645698,163.460907 215.613936,159.395093" id="Path" fill="url(#linearGradient-5)"></path>
            <path d="M397.644468,163.284259 C362.578482,137.922414 319.771137,118.609114 296.99861,118.609114 C275.423511,118.609114 241.676892,136.004219 215.613936,159.395093 C214.645698,163.460907 214.133105,167.703392 214.133105,172.0656 C214.133105,202.159513 238.529041,226.555449 268.622954,226.555449 C269.572251,226.555449 270.515878,226.532619 271.453249,226.484655 C296.92998,226.440541 334.660496,211.537923 371.05607,185.094992 C380.710309,178.080776 389.605582,170.736783 397.634434,163.270885" id="Path" fill="url(#linearGradient-6)"></path>
            <path d="M324.493895,93.9337814 C303.34137,77.5515356 283.035116,65.0185891 263.3735,56.3514083 L262.571024,55.9996537 L262.571024,55.9996537 L262.77789,56.0899497 C262.37514,55.9138935 261.972659,55.7394616 261.570446,55.5666541 L260.802159,55.238403 L260.802159,55.238403 L260.31738,55.0331746 L260.31738,55.0331746 L260.057052,54.9235719 C259.656486,54.7552529 259.256185,54.5885507 258.856147,54.4234653 L258.256287,54.17705 L257.626035,53.9205913 L257.626035,53.9205913 L257.347952,53.8082322 L257.166083,53.7350123 C256.871641,53.6166406 256.577341,53.4991481 256.283182,53.3825349 L255.579869,53.1052915 C255.281444,52.9883203 254.983163,52.8722557 254.685027,52.7570975 L255.403581,53.0362924 L254.935684,52.8541168 L254.935684,52.8541168 L254.468088,52.6734528 L254.033083,52.5066349 L254.033083,52.5066349 L253.240988,52.2059884 L253.240988,52.2059884 L252.883629,52.0716669 C252.57164,51.9547564 252.259808,51.8388427 251.948131,51.7239257 L252.736002,52.0164172 L252.283225,51.8478386 L252.283225,51.8478386 L251.948131,51.7239257 C251.551507,51.577688 251.155136,51.4330645 250.759015,51.2900553 L250.165022,51.0767522 C249.885915,50.9770623 249.606932,50.8781749 249.328073,50.78009 L250.079445,51.04621 L249.589084,50.8721187 L249.589084,50.8721187 L249.098913,50.6996568 C248.819854,50.6019177 248.540853,50.50496 248.261975,50.4088068 L247.387351,50.10975 L246.929143,49.9550768 L246.929143,49.9550768 L246.471289,49.8018992 C246.181672,49.7054423 245.89232,49.6098998 245.603099,49.5152276 C245.348091,49.4317545 245.093147,49.3489457 244.838304,49.2668137 L245.603099,49.5152276 L245.173907,49.3753457 L245.173907,49.3753457 L244.838304,49.2668137 C244.552904,49.1748334 244.267631,49.083702 243.982484,48.9934195 L244.744907,49.2367421 L244.267249,49.08385 L244.267249,49.08385 L243.789652,48.9324886 C243.513286,48.8453397 243.236864,48.7589339 242.960559,48.6733269 L242.222994,48.4466199 L241.573379,48.2499523 L241.573379,48.2499523 L241.095679,48.1071314 L240.669844,47.9811055 L240.669844,47.9811055 L239.811813,47.7308682 L239.811813,47.7308682 L239.156242,47.5430135 L239.156242,47.5430135 L238.442492,47.341783 C238.154905,47.2613957 237.867444,47.181882 237.580108,47.1032423 L236.95604,46.9337645 C236.639588,46.8484962 236.323288,46.7642891 236.007138,46.6811434 L236.749692,46.8783083 L236.309941,46.7610914 L236.309941,46.7610914 L236.007138,46.6811434 C235.633919,46.5829888 235.26091,46.4863134 234.888109,46.3911172 L234.082718,46.1876778 L234.082718,46.1876778 L233.410795,46.0213553 L233.410795,46.0213553 L233.746709,46.1041172 L233.746709,46.1041172 L234.329065,46.2494324 L234.329065,46.2494324 C234.671384,46.3355351 235.013811,46.4228689 235.356392,46.5114449 L236.007138,46.6811434 L236.007138,46.6811434 L236.378381,46.7792479 L236.378381,46.7792479 L236.95604,46.9337645 L236.95604,46.9337645 L237.268086,47.0181762 L237.268086,47.0181762 L237.870908,47.1831165 L237.870908,47.1831165 L238.691041,47.4114673 L238.691041,47.4114673 L239.035262,47.508663 L239.035262,47.508663 L239.621663,47.6760823 L239.621663,47.6760823 L239.932885,47.765878 L239.932885,47.765878 L240.471949,47.9229524 L240.471949,47.9229524 L240.783732,48.0146918 L240.783732,48.0146918 L241.322075,48.1746282 L241.322075,48.1746282 L242.222994,48.4466199 L242.222994,48.4466199 L242.59172,48.5595027 L242.59172,48.5595027 L243.018043,48.6911481 L243.403859,48.8113273 L243.403859,48.8113273 L243.982484,48.9934195 L243.982484,48.9934195 L244.363695,49.1145995 L244.363695,49.1145995 L244.838304,49.2668137 L244.838304,49.2668137 L245.220596,49.3905035 L245.220596,49.3905035 L245.678248,49.5398449 L246.07462,49.6703054 L246.07462,49.6703054 L246.616104,49.8501988 L246.616104,49.8501988 L247.001603,49.9794447 L247.001603,49.9794447 L247.534107,50.1595801 L247.534107,50.1595801 L248.345871,50.4377562 L248.72235,50.5682296 L248.72235,50.5682296 L249.328073,50.78009 L249.328073,50.78009 L249.703718,50.9126769 L249.703718,50.9126769 L250.165022,51.0767522 L250.165022,51.0767522 C250.53485,51.2088454 250.904883,51.342343 251.275132,51.4772478 L251.948131,51.7239257 L251.948131,51.7239257 L252.341983,51.8696409 L252.341983,51.8696409 L252.883629,52.0716669 L252.883629,52.0716669 L253.240869,52.2059433 L253.240869,52.2059433 L253.70385,52.3811836 L254.085858,52.5268089 L254.085858,52.5268089 L254.685027,52.7570975 L254.685027,52.7570975 L255.579869,53.1052915 L255.579869,53.1052915 L255.931497,53.2435092 L255.931497,53.2435092 L256.441677,53.4454465 L256.441677,53.4454465 L256.803814,53.5897879 L256.803814,53.5897879 L257.347952,53.8082322 L257.347952,53.8082322 L258.256287,54.17705 L258.256287,54.17705 C258.60628,54.3201621 258.956528,54.4645362 259.306996,54.6101575 L260.057052,54.9235719 L260.057052,54.9235719 L260.429537,55.0805251 L260.429537,55.0805251 L260.967328,55.3086612 L260.967328,55.3086612 C261.323394,55.460305 261.679665,55.6132216 262.036146,55.7674122 L262.77789,56.0899497 L262.77789,56.0899497 C263.283877,56.3111333 263.79034,56.5349035 264.29725,56.7612453 L265.057945,57.1026846 L265.121094,56.9779698 L309.814944,0.117190497 L309.784839,0.0668760141 L309.907272,0 L309.814944,0.117190497 L310.181584,0.730805553 C323.204584,22.7440654 329.326604,54.986445 325.052889,89.7930599 L324.493895,93.9337814 Z" id="Path" fill="url(#linearGradient-7)"></path>
            <path d="M314.32347,167.24883 C318.417264,181.525585 304.949425,197.937276 284.181478,204.102685 L284.249926,204.074572 C281.368014,204.694683 278.376993,205.021166 275.309717,205.021166 C254.1261,205.021166 236.579612,189.448764 233.493288,169.126992 C240.125083,164.166442 253.386798,156.89474 268.699863,152.117729 L268.876829,152.063491 C264.50464,155.279227 261.667293,160.460167 261.667293,166.303805 C261.667293,176.060278 269.576477,183.969463 279.332951,183.969463 C289.089425,183.969463 296.99861,176.060278 296.99861,166.303805 C296.99861,158.693475 292.186308,152.207119 285.438707,149.721738 C299.632652,150.091572 311.322847,156.784415 314.32347,167.24883 Z" id="Path" fill="url(#linearGradient-8)"></path>
            <path d="M265.057945,57.1026846 C253.995088,52.1112586 243.137366,48.3389574 232.449063,45.7886977 C255.785799,18.8805945 284.29701,2.41504101 308.940107,0.137150875 L309.784839,0.0668760141 L309.907272,0 L265.121094,56.9779698" id="Path" fill="#DDDDEF"></path>
            <path d="M287.786884,146.91208 L287.624288,146.84191 L287.625781,146.841737 L287.7859,146.772768 C292.723725,144.617373 296.679244,140.631278 298.79474,135.6722 L298.864374,135.833563 C300.972652,140.663448 304.832468,144.553503 309.641131,146.70104 L309.803579,146.772768 L309.963699,146.841737 L309.965191,146.84191 L309.802596,146.91208 C304.918896,149.044145 300.996192,152.967036 298.864369,157.850866 L298.79474,158.012219 C296.679385,153.05347 292.72425,149.067575 287.786884,146.91208 Z" id="Path" fill="#FFFFFF"></path>
            <path d="M2.82939991,159.366464 C2.92986022,158.994069 3.03644118,158.620943 3.14918204,158.247108 C15.1713656,120.871638 43.8660313,90.5728337 66.5688978,90.5728337 C89.2717644,90.5728337 140.918652,120.871638 180.180667,158.247108 C181.874453,159.94328 183.429468,161.624877 184.848031,163.289729 C176.819179,170.755626 167.965796,178.080776 158.311556,185.094992 C121.915983,211.537923 84.185466,226.440541 58.7087354,226.484655 C57.7713646,226.532619 56.8277371,226.555449 55.8784399,226.555449 C25.7845274,226.555449 1.38859106,202.159513 1.38859106,172.0656 C1.38859106,167.703392 1.90118425,163.460907 2.86942281,159.395093" id="Path" fill="url(#linearGradient-5)" transform="translate(93.118311, 158.564141) scale(-1, 1) translate(-93.118311, -158.564141) "></path>
            <path d="M184.848031,163.284259 C149.782045,137.922414 106.9747,118.609114 84.2021734,118.609114 C62.6270749,118.609114 28.8804557,136.004219 2.81749986,159.395093 C1.8492613,163.460907 1.3366681,167.703392 1.3366681,172.0656 C1.3366681,202.159513 25.7326044,226.555449 55.8265169,226.555449 C56.7758142,226.555449 57.7194416,226.532619 58.6568124,226.484655 C84.1335431,226.440541 121.86406,211.537923 158.259633,185.094992 C167.913873,178.080776 176.809145,170.736783 184.837997,163.270885" id="Path" fill="url(#linearGradient-9)" transform="translate(93.092350, 172.582282) scale(-1, 1) translate(-93.092350, -172.582282) "></path>
            <path d="M163.661602,93.9337814 C142.509077,77.5515356 122.202824,65.0185891 102.541207,56.3514083 L101.738731,55.9996537 L101.738731,55.9996537 L101.945598,56.0899497 C101.542847,55.9138935 101.140366,55.7394616 100.738154,55.5666541 L99.9698666,55.238403 L99.9698666,55.238403 L99.4850875,55.0331746 L99.4850875,55.0331746 L99.2247589,54.9235719 C98.8241931,54.7552529 98.423892,54.5885507 98.0238539,54.4234653 L97.4239939,54.17705 L96.7937421,53.9205913 L96.7937421,53.9205913 L96.5156594,53.8082322 L96.33379,53.7350123 C96.0393483,53.6166406 95.7450484,53.4991481 95.4508895,53.3825349 L94.747576,53.1052915 C94.4491509,52.9883203 94.1508705,52.8722557 93.8527342,52.7570975 L94.5712885,53.0362924 L94.1033913,52.8541168 L94.1033913,52.8541168 L93.6357952,52.6734528 L93.2007902,52.5066349 L93.2007902,52.5066349 L92.4086954,52.2059884 L92.4086954,52.2059884 L92.0513368,52.0716669 C91.7393475,51.9547564 91.4275151,51.8388427 91.1158386,51.7239257 L91.9037097,52.0164172 L91.4509327,51.8478386 L91.4509327,51.8478386 L91.1158386,51.7239257 C90.7192145,51.577688 90.3228429,51.4330645 89.9267222,51.2900553 L89.332729,51.0767522 C89.0536222,50.9770623 88.7746396,50.8781749 88.4957807,50.78009 L89.247152,51.04621 L88.7567916,50.8721187 L88.7567916,50.8721187 L88.2666204,50.6996568 C87.9875612,50.6019177 87.70856,50.50496 87.429682,50.4088068 L86.5550581,50.10975 L86.0968508,49.9550768 L86.0968508,49.9550768 L85.6389964,49.8018992 C85.3493798,49.7054423 85.0600276,49.6098998 84.7708065,49.5152276 C84.5157984,49.4317545 84.2608542,49.3489457 84.0060116,49.2668137 L84.7708065,49.5152276 L84.3416145,49.3753457 L84.3416145,49.3753457 L84.0060116,49.2668137 C83.7206111,49.1748334 83.4353379,49.083702 83.1501915,48.9934195 L83.9126147,49.2367421 L83.4349565,49.08385 L83.4349565,49.08385 L82.9573589,48.9324886 C82.6809937,48.8453397 82.404571,48.7589339 82.1282668,48.6733269 L81.3907017,48.4466199 L80.7410862,48.2499523 L80.7410862,48.2499523 L80.263386,48.1071314 L79.8375509,47.9811055 L79.8375509,47.9811055 L78.9795206,47.7308682 L78.9795206,47.7308682 L78.3239491,47.5430135 L78.3239491,47.5430135 L77.6101992,47.341783 C77.3226123,47.2613957 77.0351514,47.181882 76.7478157,47.1032423 L76.1237476,46.9337645 C75.8072955,46.8484962 75.4909949,46.7642891 75.174845,46.6811434 L75.917399,46.8783083 L75.4776487,46.7610914 L75.4776487,46.7610914 L75.174845,46.6811434 C74.8016261,46.5829888 74.4286172,46.4863134 74.0558167,46.3911172 L73.2504258,46.1876778 L73.2504258,46.1876778 L72.5785019,46.0213553 L72.5785019,46.0213553 L72.9144159,46.1041172 L72.9144159,46.1041172 L73.496772,46.2494324 L73.496772,46.2494324 C73.8390909,46.3355351 74.1815182,46.4228689 74.5240996,46.5114449 L75.174845,46.6811434 L75.174845,46.6811434 L75.5460885,46.7792479 L75.5460885,46.7792479 L76.1237476,46.9337645 L76.1237476,46.9337645 L76.4357933,47.0181762 L76.4357933,47.0181762 L77.038615,47.1831165 L77.038615,47.1831165 L77.8587487,47.4114673 L77.8587487,47.4114673 L78.202969,47.508663 L78.202969,47.508663 L78.78937,47.6760823 L78.78937,47.6760823 L79.1005927,47.765878 L79.1005927,47.765878 L79.6396559,47.9229524 L79.6396559,47.9229524 L79.9514396,48.0146918 L79.9514396,48.0146918 L80.4897826,48.1746282 L80.4897826,48.1746282 L81.3907017,48.4466199 L81.3907017,48.4466199 L81.7594271,48.5595027 L81.7594271,48.5595027 L82.1857508,48.6911481 L82.5715659,48.8113273 L82.5715659,48.8113273 L83.1501915,48.9934195 L83.1501915,48.9934195 L83.5314026,49.1145995 L83.5314026,49.1145995 L84.0060116,49.2668137 L84.0060116,49.2668137 L84.3883032,49.3905035 L84.3883032,49.3905035 L84.845955,49.5398449 L85.2423272,49.6703054 L85.2423272,49.6703054 L85.783811,49.8501988 L85.783811,49.8501988 L86.1693104,49.9794447 L86.1693104,49.9794447 L86.701814,50.1595801 L86.701814,50.1595801 L87.5135788,50.4377562 L87.8900575,50.5682296 L87.8900575,50.5682296 L88.4957807,50.78009 L88.4957807,50.78009 L88.8714254,50.9126769 L88.8714254,50.9126769 L89.332729,51.0767522 L89.332729,51.0767522 C89.7025569,51.2088454 90.0725904,51.342343 90.4428392,51.4772478 L91.1158386,51.7239257 L91.1158386,51.7239257 L91.5096903,51.8696409 L91.5096903,51.8696409 L92.0513368,52.0716669 L92.0513368,52.0716669 L92.4085759,52.2059433 L92.4085759,52.2059433 L92.8715574,52.3811836 L93.2535654,52.5268089 L93.2535654,52.5268089 L93.8527342,52.7570975 L93.8527342,52.7570975 L94.747576,53.1052915 L94.747576,53.1052915 L95.0992042,53.2435092 L95.0992042,53.2435092 L95.6093841,53.4454465 L95.6093841,53.4454465 L95.9715216,53.5897879 L95.9715216,53.5897879 L96.5156594,53.8082322 L96.5156594,53.8082322 L97.4239939,54.17705 L97.4239939,54.17705 C97.7739869,54.3201621 98.1242351,54.4645362 98.4747035,54.6101575 L99.2247589,54.9235719 L99.2247589,54.9235719 L99.5972445,55.0805251 L99.5972445,55.0805251 L100.135036,55.3086612 L100.135036,55.3086612 C100.491101,55.460305 100.847372,55.6132216 101.203853,55.7674122 L101.945598,56.0899497 L101.945598,56.0899497 C102.451584,56.3111333 102.958047,56.5349035 103.464957,56.7612453 L104.225653,57.1026846 L104.288802,56.9779698 L148.982652,0.117190497 L148.952547,0.0668760141 L149.074979,0 L148.982652,0.117190497 L149.349292,0.730805553 C162.372292,22.7440654 168.494312,54.986445 164.220597,89.7930599 L163.661602,93.9337814 Z" id="Path" fill="url(#linearGradient-7)" transform="translate(119.074422, 46.966891) scale(-1, 1) translate(-119.074422, -46.966891) "></path>
            <path d="M84.6576657,167.24883 C80.5638719,181.525585 94.0317108,197.937276 114.799658,204.102685 L114.73121,204.074572 C117.613121,204.694683 120.604143,205.021166 123.671418,205.021166 C144.855036,205.021166 162.401524,189.448764 165.487848,169.126992 C158.856053,164.166442 145.594338,156.89474 130.281273,152.117729 L130.104307,152.063491 C134.476496,155.279227 137.313843,160.460167 137.313843,166.303805 C137.313843,176.060278 129.404658,183.969463 119.648184,183.969463 C109.891711,183.969463 101.982526,176.060278 101.982526,166.303805 C101.982526,158.693475 106.794827,152.207119 113.542429,149.721738 C99.3484842,150.091572 87.6582884,156.784415 84.6576657,167.24883 Z" id="Path" fill="url(#linearGradient-10)"></path>
            <path d="M121.682747,57.1026846 C110.61989,52.1112586 99.7621679,48.3389574 89.0738642,45.7886977 C112.410601,18.8805945 140.921812,2.41504101 165.564909,0.137150875 L166.409641,0.0668760141 L166.532073,0 L121.745896,56.9779698" id="Path" fill="#DDDDEF" transform="translate(127.802969, 28.551342) scale(-1, 1) translate(-127.802969, -28.551342) "></path>
            <path d="M199.422028,281.530886 C226.217978,281.530886 247.940387,265.489722 247.940387,245.701944 C247.940387,236.80004 243.544164,228.656384 236.26752,222.390335 C227.369127,214.72777 214.163317,209.873002 199.422028,209.873002 C172.626079,209.873002 150.90367,225.914166 150.90367,245.701944 C150.90367,265.489722 172.626079,281.530886 199.422028,281.530886 Z" id="Oval" fill="url(#linearGradient-11)"></path>
            <path d="M232.664293,249.185778 C230.314372,260.864253 216.3265,269.836717 199.422028,269.836717 C182.517556,269.836717 168.529684,260.864253 166.179764,249.185778 L232.664293,249.185778 Z" id="Path" fill="#000000"></path>
            <path d="M199.422028,258.467918 C207.235383,258.467918 214.353558,260.920199 219.704568,264.94155 C214.068724,268.013759 207.041663,269.836717 199.422028,269.836717 C191.802386,269.836717 184.775317,268.013755 179.139521,264.941709 C184.490499,260.920199 191.608674,258.467918 199.422028,258.467918 Z" id="Path" fill="url(#linearGradient-12)"></path>
            <polygon id="Rectangle" fill="#FFFFFF" transform="translate(181.597047, 249.185313) rotate(-45.000000) translate(-181.597047, -249.185313) " points="177.118429 244.706695 186.075665 253.663931 177.118429 253.663931"></polygon>
            <polygon id="Rectangle-Copy" fill="#FFFFFF" transform="translate(217.247010, 249.185313) rotate(-45.000000) translate(-217.247010, -249.185313) " points="212.768392 244.706695 221.725627 253.663931 212.768392 253.663931"></polygon>
            <path d="M199.559107,214.102808 C212.251069,214.122434 220.742457,216.847128 222.940624,220.862898 L222.972902,220.923991 L223.178241,221.4224 L223.178241,221.4224 L223.430116,222.020901 L223.430116,222.020901 L223.497042,222.173554 C223.499251,222.178327 223.501179,222.182411 223.502811,222.185771 L223.505765,222.194898 C223.864053,223.316847 223.982365,224.490202 223.831584,225.698248 C222.560721,233.6971 211.735499,240.173738 199.784515,240.280527 L199.558938,240.281075 L199.559107,240.281809 L199.422028,240.281809 L199.421842,240.281075 L199.19662,240.280527 C187.245637,240.173738 176.420415,233.6971 175.149552,225.698248 C175.005053,224.540537 175.107691,223.414687 175.431837,222.335408 L175.478157,222.185717 L175.498749,222.141115 L175.498749,222.141115 L175.618176,221.86319 L175.618176,221.86319 L175.855861,221.2947 L176.006882,220.925982 L176.040512,220.862898 C178.216697,216.887286 186.560869,214.177057 199.042209,214.104309 L199.559107,214.102808 Z" id="Path" fill="#000000"></path>
        </g>
    </g>
</svg>